<?xml version="1.0" encoding="UTF-8"?>
<svg xmlns="http://www.w3.org/2000/svg" style="display: none;">
    <symbol id="custom-logo" viewBox="0 0 176 32">
        <g transform="translate(-60, 0)">
            <path d="M117.96 20.52H112.72L111.88 23H108.3L113.38 8.96H117.34L122.42 23H118.8L117.96 20.52ZM117.08 17.88L115.34 12.74L113.62 17.88H117.08Z" fill="currentColor"/>
            <path d="M123.29 17.4C123.29 16.25 123.5 15.25 123.93 14.38C124.37 13.51 124.96 12.85 125.71 12.38C126.46 11.91 127.29 11.68 128.21 11.68C128.94 11.68 129.61 11.83 130.21 12.14C130.82 12.45 131.3 12.86 131.65 13.38V8.2H135.07V23H131.65V21.4C131.33 21.93 130.87 22.36 130.27 22.68C129.68 23 129 23.16 128.21 23.16C127.29 23.16 126.46 22.93 125.71 22.46C124.96 21.98 124.37 21.31 123.93 20.44C123.5 19.56 123.29 18.55 123.29 17.4ZM131.65 17.42C131.65 16.57 131.41 15.89 130.93 15.4C130.46 14.91 129.89 14.66 129.21 14.66C128.53 14.66 127.95 14.91 127.47 15.4C127 15.88 126.77 16.55 126.77 17.4C126.77 18.25 127 18.93 127.47 19.44C127.95 19.93 128.53 20.18 129.21 20.18C129.89 20.18 130.46 19.93 130.93 19.44C131.41 18.95 131.65 18.27 131.65 17.42Z" fill="currentColor"/>
            <path d="M151.78 11.72C153.17 11.72 154.27 12.14 155.08 12.98C155.91 13.82 156.32 14.99 156.32 16.48V23H152.92V16.94C152.92 16.22 152.73 15.67 152.34 15.28C151.97 14.88 151.45 14.68 150.78 14.68C150.12 14.68 149.59 14.88 149.2 15.28C148.83 15.67 148.64 16.22 148.64 16.94V23H145.24V16.94C145.24 16.22 145.05 15.67 144.66 15.28C144.29 14.88 143.77 14.68 143.1 14.68C142.44 14.68 141.91 14.88 141.52 15.28C141.15 15.67 140.96 16.22 140.96 16.94V23H137.54V11.84H140.96V13.24C141.31 12.77 141.76 12.41 142.32 12.14C142.88 11.86 143.52 11.72 144.22 11.72C145.06 11.72 145.81 11.9 146.46 12.26C147.13 12.62 147.65 13.13 148.02 13.8C148.41 13.19 148.94 12.69 149.6 12.3C150.27 11.91 151 11.72 151.78 11.72Z" fill="currentColor"/>
            <path d="M160.44 10.68C159.84 10.68 159.34 10.51 158.96 10.16C158.58 9.8 158.4 9.36 158.4 8.84C158.4 8.31 158.58 7.87 158.96 7.52C159.34 7.16 159.84 6.98 160.44 6.98C161.02 6.98 161.5 7.16 161.88 7.52C162.26 7.87 162.46 8.31 162.46 8.84C162.46 9.36 162.26 9.8 161.88 10.16C161.5 10.51 161.02 10.68 160.44 10.68ZM162.14 11.84V23H158.72V11.84H162.14Z" fill="currentColor"/>
            <path d="M171.41 11.72C172.72 11.72 173.76 12.15 174.53 13C175.32 13.84 175.71 15 175.71 16.48V23H172.31V16.94C172.31 16.19 172.12 15.61 171.73 15.2C171.35 14.79 170.83 14.58 170.17 14.58C169.52 14.58 169 14.79 168.61 15.2C168.23 15.61 168.03 16.19 168.03 16.94V23H164.61V11.84H168.03V13.32C168.38 12.83 168.85 12.44 169.43 12.16C170.02 11.87 170.68 11.72 171.41 11.72Z" fill="currentColor"/>
        </g>
        <circle cx="14.0467" cy="16.5173" r="4.01435" fill="none" stroke="currentColor" style="stroke: var(--logo-color); fill: var(--logo-color-fill)"/>
        <path d="M22.63 16C22.63 24.28 18.79 31 14.05 31C9.31 31 5.47 24.28 5.47 16C5.47 7.72 9.31 1 14.05 1C18.79 1 22.63 7.72 22.63 16Z" stroke="currentColor" stroke-width="1.5" style="stroke: var(--logo-color); fill: var(--logo-color-fill)"/>
        <path d="M18.41 24.41C11.63 28.57 4.17 28.34 1.76 23.91C -0.66 19.48 2.89 12.51 9.68 8.35C16.47 4.19 23.93 4.42 26.34 8.85C28.75 13.28 25.2 20.25 18.41 24.41Z" stroke="currentColor" stroke-width="1.5" style="stroke: var(--logo-color); fill: var(--logo-color-fill)"/>
        <path d="M18.41 8.35C25.2 12.51 28.75 19.48 26.34 23.91C23.93 28.34 16.47 28.57 9.68 24.41C2.89 20.25 -0.66 13.28 1.76 8.85C4.17 4.42 11.63 4.19 18.41 8.35Z" stroke="currentColor" stroke-width="1.5" style="stroke: var(--logo-color); fill: var(--logo-color-fill)"/>
    </symbol>
</svg>
